<?xml version="1.0" encoding="UTF-8" standalone="no"?>
<svg
   viewBox="0 0 16 16"
   version="1.1"
   id="svg2"
   sodipodi:docname="nerd-dictation-off.svg"
   inkscape:version="1.3 (1:1.3+202307231459+0e150ed6c4)"
   xmlns:inkscape="http://www.inkscape.org/namespaces/inkscape"
   xmlns:sodipodi="http://sodipodi.sourceforge.net/DTD/sodipodi-0.dtd"
   xmlns="http://www.w3.org/2000/svg"
   xmlns:svg="http://www.w3.org/2000/svg">
  <sodipodi:namedview
     id="namedview2"
     pagecolor="#ffffff"
     bordercolor="#000000"
     borderopacity="0.25"
     inkscape:showpageshadow="2"
     inkscape:pageopacity="0.0"
     inkscape:pagecheckerboard="0"
     inkscape:deskcolor="#d1d1d1"
     inkscape:zoom="29.96365"
     inkscape:cx="7.5090986"
     inkscape:cy="8.4435642"
     inkscape:window-width="1920"
     inkscape:window-height="882"
     inkscape:window-x="0"
     inkscape:window-y="0"
     inkscape:window-maximized="1"
     inkscape:current-layer="g4" />
  <defs
     id="defs3051">
    <style
       type="text/css"
       id="current-color-scheme">&#10;      .ColorScheme-Text {&#10;        color:#232629;&#10;      }&#10;      .ColorScheme-PositiveText {&#10;        color:#27ae60;&#10;      }&#10;      </style>
  </defs>
  <g
     id="g4">
    <g
       id="g3"
       transform="translate(-0.31007513,1.1792175)">
      <path
         style="fill:#000000;fill-opacity:1;stroke:none;stroke-width:0.6"
         d="M 2.152478,7.5663712 2.6071648,7.8546525 A 6.4810256,5.021082 0 0 0 1.5806032,10.565204 6.4810256,5.021082 0 0 0 2.611853,13.272237 L 2.1501344,13.566376 A 7.0702068,5.4775431 0 0 1 0.99115044,10.565204 7.0702068,5.4775431 0 0 1 2.152478,7.5663712 Z M 3.530603,8.4429337 3.9911496,8.7347308 A 4.7134703,3.6516953 0 0 0 3.3477899,10.567548 4.7134703,3.6516953 0 0 0 3.989978,12.401532 L 3.5294308,12.693331 A 5.3026537,4.1081571 0 0 1 2.758337,10.567548 5.3026537,4.1081571 0 0 1 3.530603,8.4429337 Z"
         class="ColorScheme-PositiveText"
         id="path2" />
      <g
         id="g2"
         transform="matrix(0.02443221,0,0,0.02443221,4.0752012,0.0751891)">&#10;	<path
   d="m 264.892,0 c -31.1,0 -61,6.7 -88.9,19.9 -35.4,16.5 -65.4,42.5 -86.8,75.3 -21.9,33.7 -33.5,72.8 -33.5,113.2 v 29 l -38.1,72.8 c -7,13.4 -7.3,27.2 -0.9,37.8 6.4,10.6 18.8,16.7 33.9,16.7 h 5.1 v 58.5 c 0,30 24.4,54.4 54.4,54.4 0.7,0 1.5,-0.1 2.2,-0.2 l 170.5,-28.4 c 27,-3.7 47.2,-27 47.1,-54.2 v -99.7 c 40.1,-6.5 70.9,-41.4 70.9,-83.4 0,-46.6 -37.9,-84.5 -84.5,-84.5 -46.6,0 -84.5,37.9 -84.5,84.5 0,42.1 30.9,77 71.2,83.5 V 395 c 0.1,13.8 -10.2,25.6 -23.8,27.4 -0.2,0 -0.3,0 -0.5,0.1 l -169.6,28 c -14.6,-0.5 -26.4,-12.6 -26.4,-27.4 v -72 c 0,-7.5 -6,-13.5 -13.5,-13.5 h -18.7 c -5.3,0 -9.4,-1.4 -10.8,-3.7 -1.4,-2.3 -0.7,-6.6 1.7,-11.3 l 39.7,-75.7 c 1,-1.9 1.5,-4.1 1.5,-6.3 v -32.3 c 0,-70.1 41.1,-134.5 104.7,-164 h 0.1 c 24.3,-11.5 50.3,-17.3 77.4,-17.3 99.9,0 181.1,81.3 181.1,181.1 0,50.6 -21.4,99.2 -58.7,133.5 -2.8,2.6 -4.4,6.2 -4.4,9.9 v 62.2 57.8 c 0,7.5 6,13.5 13.5,13.5 7.5,0 13.5,-6 13.5,-13.5 v -57.8 -56.3 c 19,-18.4 34.1,-39.9 44.9,-64.1 12.1,-26.9 18.2,-55.5 18.2,-85.2 C 472.992,93.4 379.592,0 264.892,0 Z m -6.199,211.6 c 0,-31.7 25.8,-57.5 57.5,-57.5 31.7,0 57.5,25.8 57.5,57.5 0,31.7 -25.8,57.5 -57.5,57.5 -31.7,0 -57.5,-25.8 -57.5,-57.5 z"
   id="path1" />
&#10;</g>
    </g>
  </g>
</svg>
